<?xml version="1.0" encoding="utf-8"?>
<!-- Generator: Adobe Illustrator 22.1.0, SVG Export Plug-In . SVG Version: 6.00 Build 0)  -->
<svg version="1.1" id="Layer_1" xmlns="http://www.w3.org/2000/svg" xmlns:xlink="http://www.w3.org/1999/xlink" x="0px" y="0px"
	 viewBox="0 0 384 133" style="enable-background:new 0 0 384 133;" xml:space="preserve">
<style type="text/css">
	.st0{fill:#176AB3;}
	.st1{opacity:0.33;fill:#176AB3;}
	.st2{fill:none;stroke:#176BB3;stroke-width:1.5;stroke-linecap:round;stroke-miterlimit:10;}
	.st3{fill:#FFFFFF;}
	.st4{fill:#ED4144;}
	.st5{fill:#B3B3B3;}
	.st6{opacity:0.4;fill:#B3B3B3;}
	.st7{clip-path:url(#SVGID_2_);fill:#1B6DB4;}
	.st8{fill:#EB3C46;}
	.st9{fill:none;}
	.st10{fill:#1B6DB4;}
	.st11{opacity:0.33;}
	.st12{opacity:0.33;fill:#1B6DB4;}
	.st13{fill:#EAEAEA;}
	.st14{fill:none;stroke:#1B6DB4;stroke-width:2;stroke-miterlimit:10;}
	.st15{fill:#4285F4;}
	.st16{fill:#2C5AAA;}
	.st17{fill:#CCCCCC;}
	.st18{fill:#CCCCCC;stroke:#CCCCCC;stroke-miterlimit:10;}
	.st19{fill:#176AB3;stroke:#176AB3;stroke-width:0.5;stroke-miterlimit:10;}
	.st20{opacity:0.33;fill:#176AB3;stroke:#176AB3;stroke-width:0.5;stroke-miterlimit:10;}
	.st21{fill:#FFFFFF;stroke:#191242;stroke-width:4;stroke-linecap:round;stroke-linejoin:round;stroke-miterlimit:10;}
	.st22{fill:#FFFFFF;stroke:#E01F26;stroke-width:4;stroke-linecap:round;stroke-miterlimit:10;}
</style>
<path class="st10" d="M363.5,132H20.5c-10.7,0-19.4-8.7-19.4-19.4V20.7C1.1,10,9.8,1.4,20.5,1.4h343.1c10.7,0,19.4,8.7,19.4,19.4
	v91.9C382.9,123.3,374.2,132,363.5,132z"/>
<g>
	<g>
		<path class="st3" d="M317.7,72.6h-0.2c-0.8,0-1.5,0.5-1.8,1.1c0,0,0,0,0,0c0,0,0,0.1-0.1,0.2c0,0,0,0,0,0c0,0,0,0,0,0.1
			c0,0,0,0,0,0c-0.2,0.4-0.5,0.8-0.6,1l0,0c-1.5,2.1-4,3.6-6.7,3.6c-4.4,0-8.2-3.9-8.2-8.3c0-4.8,3.8-8.3,8.2-8.3
			c2.9,0,5.5,1.5,6.9,3.9c0.1,0.2,0.2,0.4,0.2,0.4c0-0.1-0.1-0.1-0.1-0.2c0.3,0.8,1,1.4,1.9,1.4h0.1c1.1,0,2-0.9,2-2v-0.1
			c0-0.5-0.2-0.9-0.4-1.3c-2.1-3.4-6-5.8-10.7-5.8c-7.2,0-12.5,5.6-12.5,12.1c0,6.6,4.9,12,12.5,12c5.2,0,9.2-2.6,11.1-6.4l0,0
			c0.2-0.3,0.3-0.6,0.3-1v-0.2C319.8,73.5,318.8,72.6,317.7,72.6z"/>
	</g>
	<g>
		<path class="st3" d="M349.4,70.3c0,0,0-0.1,0-0.1c0-6.4-5.1-11.9-12.3-11.9c-7.1,0-12.3,5.5-12.3,11.9c0,6.5,4.9,11.8,12.3,11.8
			c3.4,0,6.3-1.1,8.4-3v1.2c0,0,0,0,0,0c0,0,0,0,0,0v0h0c0,1.1,0.9,1.9,2,1.9c1.1,0,1.9-0.9,2-1.9h0v0c0,0,0,0,0,0c0,0,0,0,0,0V70.3
			z M337.1,78.3c-4.4,0-8.1-3.8-8.1-8.2c0-4.7,3.7-8.2,8.1-8.2c4.4,0,8.1,3.5,8.1,8.2C345.2,74.5,341.5,78.3,337.1,78.3z"/>
	</g>
	<g>
		<path class="st3" d="M290.1,60.2c0-1.1-0.9-2-2-2s-2,0.9-2,2c0,0,0,0,0,0v20.1c0,0,0,0,0,0s0,0,0,0v0h0c0,1.1,0.9,1.9,2,1.9
			c1.1,0,1.9-0.9,2-1.9h0v0c0,0,0,0,0,0s0,0,0,0L290.1,60.2C290.1,60.2,290.1,60.2,290.1,60.2z"/>
	</g>
	<g>
		<path class="st3" d="M279.7,69C279.7,69,279.7,69,279.7,69c0-0.1,0-0.1,0-0.1v-0.3h0c-0.2-5.7-4.6-10.4-11.2-10.4
			c-6.6,0-11,4.7-11.2,10.4h0v11.7c0,1.1,0.9,1.9,1.9,1.9s1.9-0.9,1.9-1.9V69c0-4,3.4-7.5,7.4-7.5s7.4,3.5,7.4,7.5v11.3
			c0,1.1,0.9,1.9,1.9,1.9s1.9-0.9,1.9-1.9V69.5c0,0,0,0,0,0c0,0,0,0,0,0L279.7,69L279.7,69z"/>
	</g>
	<g>
		<path class="st3" d="M167.2,70.3c0-6.5-5.2-12.1-12.5-12.1s-12.5,5.6-12.5,12.1c0,6.6,4.9,12,12.5,12c3.4,0,6.3-1.1,8.5-3v1.2
			c0,0,0,0,0,0c0,0,0,0,0,0v0h0c0,1.1,0.9,1.9,2,1.9c1.1,0,2-0.9,2-1.9h0v0c0,0,0,0,0,0c0,0,0,0,0,0V70.4
			C167.2,70.4,167.2,70.4,167.2,70.3z M154.8,78.6c-4.4,0-8.2-3.9-8.2-8.3c0-4.8,3.8-8.3,8.2-8.3c4.4,0,8.2,3.6,8.2,8.3
			C163,74.7,159.2,78.6,154.8,78.6z"/>
	</g>
	<g>
		<path class="st3" d="M137.4,78.9C137.4,78.9,137.4,78.9,137.4,78.9l-1.2,0c-1.3,0-2.6-0.9-2.6-3.5V52.1c0,0,0,0,0-0.1
			c0,0,0,0,0-0.1v-0.1h0c-0.1-1-0.9-1.9-2-1.9c-1.1,0-1.9,0.8-2,1.9h0v23.8c0,4.8,2.4,6.9,6.1,6.9h1.6v0c1,0,1.8-0.8,1.8-1.8
			S138.5,78.9,137.4,78.9z"/>
	</g>
	<g>
		<path class="st3" d="M193.3,58.3c-0.9-0.5-2.1-0.1-2.5,0.9l-8.6,17.4l-8.6-17.4c-0.5-0.9-1.6-1.3-2.5-0.9
			c-0.9,0.5-1.3,1.6-0.9,2.5l10.3,20.9c0.3,0.6,1,1.1,1.7,1.1c0,0,0,0,0,0c0.7,0,1.4-0.4,1.7-1.1l10.3-20.9
			C194.6,59.9,194.2,58.7,193.3,58.3z"/>
	</g>
	<g>
		<path class="st3" d="M210.1,58.1c-7.2,0-12.5,5.2-12.5,12.2c0,7.2,5.5,12.2,13.3,12.2c3.5,0,6.5-1,8.9-2.8
			c0.2-0.2,0.9-0.8,0.9-1.4c0-1.1-1.1-2.2-2.2-2.2c-0.6,0-0.9,0.1-1.2,0.4c-1.8,1.2-3.7,2.4-6.2,2.4c-4.1,0-7.6-2.1-8.5-5.8
			l-0.3-1.2h17.5c1.5,0,2.5-1,2.5-2.4C222.3,64.9,219,58.1,210.1,58.1z M202.2,68c0.8-3.9,4-6.2,7.7-6.2c3.7,0,7.1,2.4,7.7,6.2
			H202.2z"/>
	</g>
	<g>
		<path class="st3" d="M238.8,51.3c-0.7,0-1.3-0.4-1.7-1c-0.5-0.9-0.1-2.1,0.8-2.6l11-5.8c0.9-0.5,2.1-0.1,2.6,0.8
			c0.5,0.9,0.1,2.1-0.8,2.6l-11,5.8C239.4,51.2,239.1,51.3,238.8,51.3z"/>
	</g>
	<g>
		<g>
			<g>
				<circle class="st3" cx="54.6" cy="66.6" r="2.1"/>
			</g>
		</g>
		<g>
			<path class="st3" d="M54.6,88.9c-12.7,0-23.1-10.3-23.1-23.1c0-9.3,5.5-17.6,14.1-21.3c1-0.4,2.1,0,2.5,1c0.4,1,0,2.1-1,2.5
				c-7.2,3-11.8,10-11.8,17.8c0,10.7,8.7,19.3,19.3,19.3s19.3-8.7,19.3-19.3c0-7.9-4.8-15-12.1-17.9c-1-0.4-1.4-1.5-1-2.4
				c0.4-1,1.5-1.4,2.4-1C72,48,77.7,56.4,77.7,65.9C77.7,78.6,67.3,88.9,54.6,88.9z"/>
		</g>
		<g>
			<path class="st3" d="M54.5,58.5c-1,0-1.9-0.8-1.9-1.9V39.5c0-1,0.8-1.9,1.9-1.9h6c1,0,1.9,0.8,1.9,1.9c0,1-0.8,1.9-1.9,1.9h-4.1
				v15.3C56.3,57.7,55.5,58.5,54.5,58.5z"/>
		</g>
		<g>
			<path class="st3" d="M54.6,78.4c-6.5,0-11.8-5.3-11.8-11.8c0-6.5,5.3-11.8,11.8-11.8s11.8,5.3,11.8,11.8
				C66.4,73.1,61.1,78.4,54.6,78.4z M54.6,58.5c-4.5,0-8.1,3.6-8.1,8.1c0,4.5,3.6,8.1,8.1,8.1s8.1-3.6,8.1-8.1
				C62.7,62.2,59.1,58.5,54.6,58.5z"/>
		</g>
	</g>
	<g>
		<path class="st3" d="M108.3,83.4c-9.3,0-16.9-7.6-16.9-16.9s7.6-16.9,16.9-16.9c5.9,0,11.5,3.2,14.5,8.3c0.5,0.9,0.2,2.1-0.7,2.6
			c-0.9,0.5-2.1,0.2-2.6-0.7c-2.4-4-6.7-6.4-11.3-6.4c-7.2,0-13.1,5.9-13.1,13.1s5.9,13.1,13.1,13.1c5.1,0,9.8-3,11.9-7.6
			c0.4-0.9,1.6-1.4,2.5-0.9c0.9,0.4,1.4,1.6,0.9,2.5C120.8,79.5,114.8,83.4,108.3,83.4z"/>
	</g>
	<g>
		<path class="st3" d="M229.6,73c-1,0-1.9-0.8-1.9-1.9V53.5c0-1,0.8-1.9,1.9-1.9s1.9,0.8,1.9,1.9v17.5C231.5,72.1,230.7,73,229.6,73
			z"/>
	</g>
	<g>
		<path class="st3" d="M250.5,73c-1,0-1.9-0.8-1.9-1.9V53.5c0-1,0.8-1.9,1.9-1.9s1.9,0.8,1.9,1.9v17.5C252.4,72.1,251.6,73,250.5,73
			z"/>
	</g>
	<g>
		<path class="st3" d="M240.1,83.4c-6.8,0-12.3-5.5-12.3-12.3h3.8c0,4.7,3.8,8.6,8.6,8.6c4.7,0,8.6-3.8,8.6-8.6h3.8
			C252.4,77.9,246.9,83.4,240.1,83.4z"/>
	</g>
</g>
</svg>
